<svg xmlns="http://www.w3.org/2000/svg" width="107" height="23" fill="none" class="header__CompanyName-sc-hwtn4g-4 ljCbfV"><path fill="#F8F9FA" d="M5.826 2.495c0 .45-.17.9-.563 1.238-.394.338-.9.563-1.52.563H1.211v2.307H.535V.693h3.208c.62 0 1.126.17 1.52.563.394.338.563.788.563 1.239Zm-.676 0c0-.563-.45-1.126-1.35-1.126H1.267V3.62H3.8c.9 0 1.35-.563 1.35-1.125ZM17.701 1.369v1.97h3.265v.675H17.7v1.97h4.672v.676H16.97V.694h5.403v.675H17.7ZM39.089.694v.675h-2.42v5.234h-.676V1.37h-2.42V.694h5.516ZM50.964 1.369v1.97h3.264v.675h-3.264v1.97h4.672v.676h-5.404V.694h5.404v.675h-4.672ZM70.382 4.296l1.745 2.364h-.844l-1.689-2.308h-2.026V6.66h-.675V.694H70.1c.619 0 1.125.168 1.52.562.337.338.506.788.506 1.239 0 .45-.169.9-.563 1.238-.281.338-.675.506-1.182.563Zm-.281-.676c.957 0 1.35-.563 1.35-1.125 0-.563-.45-1.126-1.35-1.126h-2.533V3.62h2.533ZM5.826 18.141c0 .45-.17.9-.563 1.239-.394.337-.9.562-1.52.562H1.211v2.308H.535v-5.91h3.208c.62 0 1.126.17 1.52.563.394.282.563.732.563 1.238Zm-.676 0c0-.562-.45-1.125-1.35-1.125H1.267v2.251H3.8c.9 0 1.35-.62 1.35-1.126ZM23.16 22.25h-.731l-.675-1.52h-3.265l-.675 1.52h-.732l2.645-5.91h.845l2.589 5.91Zm-1.744-2.195-1.351-2.983-1.35 2.983h2.7ZM37.907 19.886l1.744 2.364h-.844l-1.688-2.308h-2.027v2.308h-.675v-5.91h3.208c.62 0 1.126.17 1.52.563.337.338.506.788.506 1.238 0 .45-.169.9-.563 1.239-.281.281-.675.45-1.181.506Zm-.338-.619c.957 0 1.35-.563 1.35-1.126 0-.562-.45-1.125-1.35-1.125h-2.533v2.251h2.533ZM56.367 16.34v.676h-2.42v5.234h-.675v-5.234h-2.42v-.676h5.515ZM73.083 16.34v5.91h-.844l-3.996-5.065v5.065h-.676v-5.91h.9l3.997 5.066V16.34h.62ZM84.96 17.016v1.97h3.264v.675h-3.265v1.97h4.672v.675h-5.403V16.34h5.403v.676h-4.672ZM104.377 19.886l1.745 2.364h-.844l-1.689-2.308h-2.026v2.308h-.675v-5.91h3.208c.619 0 1.125.17 1.519.563.338.338.507.788.507 1.238 0 .45-.169.9-.563 1.239-.281.281-.675.45-1.182.506Zm-.281-.619c.957 0 1.351-.563 1.351-1.126 0-.562-.451-1.125-1.351-1.125h-2.533v2.251h2.533Z"/></svg>