<svg xmlns="http://www.w3.org/2000/svg" width="19" height="19" fill="none" class="logo__Svg-sc-llynk2-0 jTzpln"><path fill="#fff" d="M9.919.834c.143.239.214.549.214.882v5.245L12.9 9.727V.238c.071 0 .31-.023.715-.023.954 0 1.669.262 2.122.81.453.548.715 1.407.715 2.527 0 .954-.19 1.74-.549 2.36-.429.763-1.334 1.168-2.67 1.264 1.288.119 2.265.119 2.933-.048a4.46 4.46 0 0 0 1.788-.858c.596-.5.953-1.288 1.025-2.336.095-1.073-.12-1.932-.62-2.551-.43-.549-1.001-.906-1.74-1.097-.74-.19-1.74-.262-3.004-.238L11.11.07 8.369.143c.286 0 .596.072.93.215.262.071.477.238.62.476ZM8.272 8.702c-.739-.191-1.74-.263-3.003-.239l-2.504.072L0 8.606c.286 0 .596.072.93.215.262.071.453.238.62.477.143.238.214.548.214.882v5.244L4.53 18.19V8.678c.071 0 .31-.024.715-.024.953 0 1.669.262 2.121.81.477.549.716 1.407.716 2.527 0 .954-.191 1.74-.549 2.36-.429.763-1.335 1.169-2.67 1.264 1.288.12 2.265.12 2.933-.048a4.462 4.462 0 0 0 1.788-.858c.596-.5.953-1.287 1.025-2.336.095-1.073-.12-1.931-.62-2.551-.405-.572-1.001-.93-1.717-1.12Z"/><path fill="#41C994" d="M17.044 16.092v-.668l-2.765-2.741v3.409c0 .953-.31 1.573-.93 1.835-.429.191-.763.286-1.025.286H19c-.262 0-.596-.095-1.049-.286-.596-.262-.905-.858-.905-1.835ZM5.626 5.245c-.62-.263-.93-.859-.93-1.836v-.667L1.955 0v3.41c0 .953-.31 1.572-.93 1.835-.429.19-.763.286-1.025.286h6.675c-.238 0-.596-.096-1.049-.286Z"/></svg>